#!OML:ASF H:\Pregnant\Project 1\Capture day 1\Session 1\femalepreg.ASF
:FULLY-SPECIFIED
:DEGREES
1391
root 0.0454815 15.6567 20.9087 19.6445 -41.7644 359.131
lowerback -21.4586 -1.27511 -0.752229
upperback -8.40356 -1.92455 2.71368
thorax 2.95961 -1.02251 2.87233
lowerneck -18.9487 -5.09315 -4.18089
upperneck 29.6331 -7.30334 2.91493
head 13.4222 -3.38212 0.579168
rclavicle -7.25564e-015 2.22639e-014
rhumerus -33.7644 6.80091 -81.5848
rradius 26.968
rwrist -2.13008
rhand -14.6057 346.829
rfingers 7.12502
rthumb 11.545 677.167
lclavicle -7.25564e-015 2.22639e-014
lhumerus -39.0032 -16.7384 92.3987
lradius 37.7255
lwrist 37.7616
lhand -23.7667 -359.073
lfingers 7.12502
lthumb 2.70264 -329.111
rfemur -35.4636 18.418 13.0055
rtibia 37.3539
rfoot -14.8155 -25.5478
rtoes -6.90673
lfemur 341.134 -15.5506 342.439
ltibia 13.8814
lfoot -11.0621 29.8123
ltoes 0.777718
1392
root 0.0485333 15.6566 20.9072 19.6519 -41.8081 359.108
lowerback -21.4463 -1.276 -0.761365
upperback -8.40583 -1.92388 2.71021
thorax 2.95103 -1.0221 2.87418
lowerneck -18.9754 -5.12323 -4.18674
upperneck 29.5265 -7.363 2.99681
head 13.3899 -3.39718 0.601737
rclavicle 2.5842e-014 -1.27222e-014
rhumerus -33.7096 6.70674 -81.5075
rradius 26.9272
rwrist -2.17646
rhand -14.7833 346.834
rfingers 7.12502
rthumb 11.3737 677.162
lclavicle 2.5842e-014 -1.27222e-014
lhumerus -39.17 -16.7753 92.4441
lradius 37.4835
lwrist 37.9035
lhand -23.7377 -358.991
lfingers 7.12502
lthumb 2.73069 -329.029
rfemur -35.4719 18.4403 13.0064
rtibia 37.3369
rfoot -14.7973 -25.5265
rtoes -6.89002
lfemur 341.12 -15.5227 342.442
ltibia 13.9192
lfoot -11.1036 29.8246
ltoes 0.854805
1393
root 0.0515441 15.6566 20.9055 19.6577 -41.8486 359.084
lowerback -21.4259 -1.27975 -0.775083
upperback -8.40654 -1.92617 2.71193
thorax 2.94053 -1.02296 2.88363
lowerneck -19.002 -5.15001 -4.19722
upperneck 29.4126 -7.41536 3.07879
head 13.3545 -3.40961 0.626416
rclavicle 4.8901e-014 2.70347e-014
rhumerus -33.6606 6.61207 -81.4266
rradius 26.8792
rwrist -2.22831
rhand -14.9489 346.843
rfingers 7.12502
rthumb 11.214 677.163
lclavicle 4.8901e-014 2.70347e-014
lhumerus -39.3435 -16.812 92.5006
lradius 37.22
lwrist 38.03
lhand -23.7109 -358.92
lfingers 7.12502
lthumb 2.75658 -328.958
rfemur -35.476 18.4644 13.0092
rtibia 37.3174
rfoot -14.7784 -25.5076
rtoes -6.87385
lfemur 341.106 -15.4817 342.443
ltibia 13.9579
lfoot -11.1384 29.8227
ltoes 0.917288
1394
root 0.0545102 15.6566 20.9036 19.6615 -41.8861 359.06
lowerback -21.3981 -1.28673 -0.793955
upperback -8.40507 -1.93178 2.71875
thorax 2.92915 -1.02526 2.9008
lowerneck -19.0295 -5.17337 -4.21192
upperneck 29.2925 -7.46022 3.16025
head 13.3167 -3.41931 0.652887
rclavicle 2.95195e-014 2.62396e-014
rhumerus -33.6165 6.52056 -81.3442
rradius 26.8241
rwrist -2.28517
rhand -15.1018 346.856
rfingers 7.12502
rthumb 11.0666 677.168
lclavicle 2.95195e-014 2.62396e-014
lhumerus -39.5216 -16.8472 92.5669
lradius 36.935
lwrist 38.1384
lhand -23.692 -358.867
lfingers 7.12502
lthumb 2.77484 -328.905
rfemur -35.4764 18.4898 13.0134
rtibia 37.296
rfoot -14.7594 -25.4907
rtoes -6.85871
lfemur 341.094 -15.4324 342.443
ltibia 13.9958
lfoot -11.1668 29.8112
ltoes 0.968082
1395
root 0.0574187 15.6567 20.9016 19.6628 -41.9209 359.036
lowerback -21.3641 -1.29687 -0.818014
upperback -8.40067 -1.94056 2.72988
thorax 2.9183 -1.02895 2.92486
lowerneck -19.0587 -5.19325 -4.22985
upperneck 29.1668 -7.49774 3.24081
head 13.2769 -3.42628 0.680778
rclavicle 4.41302e-014 3.97569e-014
rhumerus -33.5763 6.43445 -81.2623
rradius 26.7621
rwrist -2.34544
rhand -15.2397 346.867
rfingers 7.12502
rthumb 10.9335 677.172
lclavicle 4.41302e-014 3.97569e-014
lhumerus -39.7024 -16.8805 92.6414
lradius 36.629
lwrist 38.2255
lhand -23.6812 -358.833
lfingers 7.12502
lthumb 2.78527 -328.871
rfemur -35.4733 18.5156 13.0188
rtibia 37.2735
rfoot -14.7407 -25.4752
rtoes -6.84495
lfemur 341.084 -15.3791 342.442
ltibia 14.0316
lfoot -11.1891 29.7944
ltoes 1.00958
1396
root 0.0602511 15.6569 20.8993 19.6611 -41.9535 359.014
lowerback -21.3257 -1.30958 -0.846788
upperback -8.39275 -1.9518 2.74392
thorax 2.90936 -1.0337 2.95418
lowerneck -19.0892 -5.20987 -4.25008
upperneck 29.0366 -7.5287 3.32057
head 13.2353 -3.43075 0.709825
rclavicle -3.99557e-014 1.74931e-014
rhumerus -33.5404 6.35518 -81.1832
rradius 26.694
rwrist -2.40725
rhand -15.3601 346.873
rfingers 7.12502
rthumb 10.8175 677.171
lclavicle -3.99557e-014 1.74931e-014
lhumerus -39.8849 -16.9126 92.7225
lradius 36.3029
lwrist 38.289
lhand -23.6746 -358.814
lfingers 7.12502
lthumb 2.79161 -328.853
rfemur -35.4669 18.5401 13.0251
rtibia 37.2506
rfoot -14.7225 -25.4599
rtoes -6.83315
lfemur 341.078 -15.3258 342.441
ltibia 14.0643
lfoot -11.2061 29.7765
ltoes 1.0434
1397
root 0.0629866 15.657 20.8969 19.6563 -41.9843 358.994
lowerback -21.2847 -1.32359 -0.878818
upperback -8.38088 -1.96402 2.75875
thorax 2.90364 -1.03886 2.98598
lowerneck -19.1209 -5.22372 -4.27044
upperneck 28.9029 -7.55451 3.39902
head 13.1925 -3.43315 0.739216
rclavicle -8.10048e-014 2.3059e-014
rhumerus -33.5096 6.28181 -81.1091
rradius 26.6204
rwrist -2.46772
rhand -15.4601 346.87
rfingers 7.12502
rthumb 10.7209 677.163
lclavicle -8.10048e-014 2.3059e-014
lhumerus -40.0685 -16.9462 92.8083
lradius 35.9579
lwrist 38.3262
lhand -23.6674 -358.804
lfingers 7.12502
lthumb 2.79861 -328.843
rfemur -35.4576 18.5623 13.0321
rtibia 37.2281
rfoot -14.7053 -25.4438
rtoes -6.82294
lfemur 341.076 -15.2759 342.439
ltibia 14.093
lfoot -11.2184 29.7607
ltoes 1.07072
1398
root 0.0656124 15.6572 20.8945 19.6487 -42.0137 358.976
lowerback -21.2435 -1.33694 -0.912301
upperback -8.36473 -1.97489 2.77111
thorax 2.90227 -1.04334 3.01623
lowerneck -19.1539 -5.23586 -4.28861
upperneck 28.7671 -7.57807 3.47741
head 13.1489 -3.43433 0.768525
rclavicle -6.95746e-014 -4.77083e-015
rhumerus -33.485 6.20973 -81.0419
rradius 26.5422
rwrist -2.52258
rhand -15.5383 346.856
rfingers 7.12502
rthumb 10.6455 677.146
lclavicle -6.95746e-014 -4.77083e-015
lhumerus -40.2526 -16.987 92.8968
lradius 35.5954
lwrist 38.3362
lhand -23.6541 -358.797
lfingers 7.12502
lthumb 2.81141 -328.836
rfemur -35.4465 18.5809 13.0394
rtibia 37.2065
rfoot -14.6888 -25.426
rtoes -6.81477
lfemur 341.078 -15.2323 342.437
ltibia 14.1172
lfoot -11.2273 29.75
ltoes 1.0944
1399
root 0.0681187 15.6574 20.8919 19.6388 -42.0421 358.961
lowerback -21.2044 -1.34721 -0.944695
upperback -8.34388 -1.98152 2.77695
thorax 2.90653 -1.04583 3.03976
lowerneck -19.189 -5.24756 -4.30047
upperneck 28.6303 -7.60292 3.5562
head 13.1053 -3.43531 0.796587
rclavicle 4.08502e-014 4.77083e-015
rhumerus -33.467 6.13084 -80.9836
rradius 26.4595
rwrist -2.56621
rhand -15.594 346.836
rfingers 7.12502
rthumb 10.5918 677.123
lclavicle 4.08502e-014 4.77083e-015
lhumerus -40.4364 -17.0423 92.9848
lradius 35.2172
lwrist 38.319
lhand -23.6331 -358.789
lfingers 7.12502
lthumb 2.83168 -328.828
rfemur -35.4352 18.5952 13.0464
rtibia 37.1867
rfoot -14.6728 -25.4063
rtoes -6.80917
lfemur 341.082 -15.1973 342.434
ltibia 14.1364
lfoot -11.234 29.7462
ltoes 1.11796
1400
root 0.0705044 15.6577 20.8893 19.6276 -42.0695 358.949
lowerback -21.1692 -1.35216 -0.973543
upperback -8.31796 -1.98128 2.77224
thorax 2.9174 -1.0451 3.05145
lowerneck -19.2279 -5.26013 -4.30208
upperneck 28.4942 -7.63287 3.637
head 13.0628 -3.43709 0.822653
rclavicle 5.87409e-014 7.95139e-016
rhumerus -33.4559 6.03553 -80.9356
rradius 26.3721
rwrist -2.59216
rhand -15.6271 346.814
rfingers 7.12502
rthumb 10.5598 677.099
lclavicle 5.87409e-014 7.95139e-016
lhumerus -40.6191 -17.1197 93.0695
lradius 34.8252
lwrist 38.277
lhand -23.6047 -358.779
lfingers 7.12502
lthumb 2.85908 -328.819
rfemur -35.4252 18.6049 13.0525
rtibia 37.1692
rfoot -14.6573 -25.3847
rtoes -6.80585
lfemur 341.089 -15.1717 342.431
ltibia 14.1502
lfoot -11.2393 29.7502
ltoes 1.14393
1401
root 0.0727736 15.6579 20.8868 19.6162 -42.0962 358.94
lowerback -21.1395 -1.34999 -0.996945
upperback -8.28684 -1.972 2.75378
thorax 2.93549 -1.04018 3.04723
lowerneck -19.2726 -5.27455 -4.28938
upperneck 28.3605 -7.67089 3.71995
head 13.0225 -3.44048 0.845521
rclavicle -8.50798e-014 -3.97569e-015
rhumerus -33.4513 5.91383 -80.8984
rradius 26.2795
rwrist -2.59353
rhand -15.6381 346.799
rfingers 7.12502
rthumb 10.5493 677.083
lclavicle -8.50798e-014 -3.97569e-015
lhumerus -40.8 -17.2249 93.1479
lradius 34.4214
lwrist 38.2132
lhand -23.5712 -358.77
lfingers 7.12502
lthumb 2.89152 -328.81
rfemur -35.4183 18.6103 13.0571
rtibia 37.1546
rfoot -14.6417 -25.3616
rtoes -6.80609
lfemur 341.096 -15.1555 342.428
ltibia 14.1584
lfoot -11.2439 29.7622
ltoes 1.17514
1402
root 0.0749341 15.6581 20.8842 19.6052 -42.1221 358.935
lowerback -21.1159 -1.34017 -1.01427
upperback -8.25075 -1.95304 2.72034
thorax 2.96078 -1.03075 3.02557
lowerneck -19.3244 -5.29112 -4.26045
upperneck 28.2304 -7.7182 3.80528
head 12.9851 -3.44577 0.864714
rclavicle -5.03919e-014 -3.89618e-014
rhumerus -33.4529 5.75915 -80.8708
rradius 26.1812
rwrist -2.56504
rhand -15.6266 346.795
rfingers 7.12502
rthumb 10.5604 677.081
lclavicle -5.03919e-014 -3.89618e-014
lhumerus -40.9788 -17.3591 93.218
lradius 34.0078
lwrist 38.1313
lhand -23.5339 -358.764
lfingers 7.12502
lthumb 2.92752 -328.804
rfemur -35.4159 18.6113 13.0595
rtibia 37.1432
rfoot -14.6262 -25.3375
rtoes -6.81065
lfemur 341.104 -15.1482 342.425
ltibia 14.1609
lfoot -11.2483 29.7816
ltoes 1.21428
1403
root 0.0769925 15.6583 20.8816 19.5952 -42.1474 358.933
lowerback -21.0981 -1.32336 -1.02627
upperback -8.21064 -1.9252 2.67335
thorax 2.9922 -1.01719 2.9883
lowerneck -19.3836 -5.30949 -4.21619
upperneck 28.1056 -7.7737 3.89167
head 12.9513 -3.45277 0.880056
rclavicle -8.02096e-014 -1.90833e-014
rhumerus -33.4605 5.56959 -80.8499
rradius 26.0769
rwrist -2.50341
rhand -15.5931 346.807
rfingers 7.12502
rthumb 10.5927 677.094
lclavicle -8.02096e-014 -1.90833e-014
lhumerus -41.1563 -17.5168 93.2799
lradius 33.5863
lwrist 38.0337
lhand -23.4939 -358.761
lfingers 7.12502
lthumb 2.96617 -328.802
rfemur -35.4186 18.6084 13.0598
rtibia 37.1353
rfoot -14.6105 -25.3125
rtoes -6.82072
lfemur 341.111 -15.1482 342.422
ltibia 14.158
lfoot -11.253 29.8073
ltoes 1.26191
